<svg width="221" height="53" viewBox="0 0 221 53" fill="none" xmlns="http://www.w3.org/2000/svg">
<path d="M55.4049 9.4762H19.5C9.28575 26.5 4.02384 29.9048 19.5 50.0238H55.4049C44.2619 31.1429 47.0477 16.6984 55.4049 9.4762Z" fill="#FFF5D2" stroke="black" stroke-width="0.619048"/>
<path d="M10.5269 6.98993C11.1003 6.98993 11.659 7.21047 12.1 7.63683L15.217 10.7537L7.42469 18.5607L4.30779 15.4732C3.42564 14.5764 3.42564 13.1796 4.30779 12.3269L8.96844 7.63683C9.40951 7.21047 9.9682 6.98993 10.5269 6.98993ZM16.2608 11.7976L28.1697 23.7212L24.4059 24.1329L24.1413 27.4998L20.7892 27.7497L20.3628 31.5135L8.45386 19.5899M29.0372 25.0886L31.6101 34.9245L21.7595 32.2927L22.1124 29.117L25.5086 28.8671L25.7733 25.4561" fill="black"/>
<path d="M34.3472 17.0903C34.2977 17.0903 34.2556 17.0804 34.2209 17.0606C34.1863 17.0408 34.1343 17.0011 34.0649 16.9417L34.1318 16.548C34.2209 15.9983 34.2903 15.5402 34.3398 15.1737C34.3893 14.8023 34.424 14.4209 34.4438 14.0297C34.2754 14.1783 34.0476 14.4209 33.7604 14.7577C33.592 14.9558 33.4607 15.1019 33.3667 15.196C33.2775 15.2851 33.2082 15.3297 33.1587 15.3297C33.119 15.3248 33.0819 15.3025 33.0472 15.2628C33.0175 15.2183 33.0027 15.1663 33.0027 15.1068C33.0027 15.0375 33.0274 14.9756 33.0769 14.9211L34.3844 13.5246C34.4289 13.475 34.4636 13.4082 34.4884 13.324C34.5131 13.2398 34.5379 13.1234 34.5627 12.9748C34.5924 12.7867 34.627 12.6455 34.6667 12.5514C34.7063 12.4524 34.7707 12.4028 34.8598 12.4028C34.8994 12.4028 34.9291 12.4078 34.9489 12.4177C34.9687 12.4227 34.9861 12.44 35.0009 12.4697L35.0084 12.7148C35.0084 12.804 34.9638 13.2373 34.8747 14.0148C34.7905 14.7874 34.6988 15.4931 34.5998 16.132C34.5007 16.7708 34.4166 17.0903 34.3472 17.0903ZM36.8979 16.7931C36.5958 16.7931 36.3234 16.7312 36.0808 16.6074C35.843 16.4787 35.6548 16.2929 35.5162 16.0503C35.3825 15.8027 35.3156 15.508 35.3156 15.1663C35.3156 14.884 35.3899 14.6215 35.5385 14.3788C35.687 14.1312 35.8777 13.9356 36.1105 13.792C36.3432 13.6484 36.5785 13.5766 36.8162 13.5766C37.0341 13.5766 37.247 13.6583 37.455 13.8217C37.668 13.9851 37.8413 14.1956 37.975 14.4531C38.1088 14.7107 38.1756 14.9756 38.1756 15.248C38.1756 15.7036 38.0642 16.075 37.8413 16.3623C37.6234 16.6495 37.3089 16.7931 36.8979 16.7931ZM36.7865 16.3697C37.4352 16.3697 37.7596 16.0181 37.7596 15.3148C37.7596 15.087 37.72 14.8716 37.6408 14.6686C37.5615 14.4655 37.4451 14.3021 37.2916 14.1783C37.143 14.0545 36.9697 13.9926 36.7716 13.9926C36.4695 13.9926 36.2169 14.0916 36.0139 14.2897C35.8158 14.4878 35.6969 14.7627 35.6573 15.1143C35.6524 15.1539 35.6499 15.2108 35.6499 15.2851C35.6499 15.6268 35.7564 15.8943 35.9693 16.0874C36.1872 16.2756 36.4596 16.3697 36.7865 16.3697ZM40.1044 16.7931C39.8023 16.7931 39.5299 16.7312 39.2872 16.6074C39.0495 16.4787 38.8613 16.2929 38.7227 16.0503C38.5889 15.8027 38.5221 15.508 38.5221 15.1663C38.5221 14.884 38.5964 14.6215 38.7449 14.3788C38.8935 14.1312 39.0842 13.9356 39.3169 13.792C39.5497 13.6484 39.7849 13.5766 40.0227 13.5766C40.2406 13.5766 40.4535 13.6583 40.6615 13.8217C40.8745 13.9851 41.0478 14.1956 41.1815 14.4531C41.3152 14.7107 41.3821 14.9756 41.3821 15.248C41.3821 15.7036 41.2707 16.075 41.0478 16.3623C40.8299 16.6495 40.5154 16.7931 40.1044 16.7931ZM39.9929 16.3697C40.6417 16.3697 40.9661 16.0181 40.9661 15.3148C40.9661 15.087 40.9265 14.8716 40.8472 14.6686C40.768 14.4655 40.6516 14.3021 40.4981 14.1783C40.3495 14.0545 40.1762 13.9926 39.9781 13.9926C39.676 13.9926 39.4234 14.0916 39.2204 14.2897C39.0223 14.4878 38.9034 14.7627 38.8638 15.1143C38.8588 15.1539 38.8564 15.2108 38.8564 15.2851C38.8564 15.6268 38.9628 15.8943 39.1758 16.0874C39.3937 16.2756 39.6661 16.3697 39.9929 16.3697Z" fill="black"/>
<path d="M19.7922 45.4476C19.5148 45.4476 19.2771 45.361 19.079 45.1876C18.8859 45.0193 18.7893 44.7593 18.7893 44.4076C18.7893 44.056 18.9577 43.7267 19.2945 43.4196C18.6952 43.3355 18.2545 43.1052 17.9722 42.7288C17.6899 42.3475 17.5487 41.8572 17.5487 41.2579C17.5487 40.6537 17.6577 40.0892 17.8756 39.5642C18.0985 39.0343 18.4278 38.601 18.8636 38.2642C19.2994 37.9225 19.7699 37.7516 20.275 37.7516C20.7851 37.7516 21.1838 37.8755 21.471 38.1231C21.7632 38.3657 21.9093 38.7 21.9093 39.1259C21.9093 39.5518 21.783 39.896 21.5305 40.1585C21.2779 40.416 20.9783 40.5448 20.6316 40.5448C20.2899 40.5448 20.0249 40.4705 19.8367 40.3219C19.6486 40.1684 19.5545 40.0075 19.5545 39.8391C19.5545 39.6657 19.6213 39.532 19.755 39.4379C19.8937 39.3389 20.0943 39.2894 20.3567 39.2894C20.2924 39.3537 20.2602 39.4404 20.2602 39.5494C20.2602 39.6534 20.2924 39.745 20.3567 39.8242C20.4211 39.9035 20.5177 39.9431 20.6465 39.9431C20.7802 39.9431 20.904 39.8737 21.0179 39.7351C21.1367 39.5964 21.1962 39.4082 21.1962 39.1705C21.1962 38.9278 21.1343 38.7396 21.0105 38.6059C20.8866 38.4722 20.6985 38.4054 20.4459 38.4054C20.1091 38.4054 19.8021 38.5415 19.5247 38.8139C19.2524 39.0863 19.0444 39.433 18.9007 39.8539C18.7571 40.2749 18.6853 40.7181 18.6853 41.1836C18.6853 41.5848 18.772 41.9389 18.9453 42.2459C19.0345 42.4044 19.1657 42.5307 19.339 42.6248C19.5173 42.7189 19.6906 42.7659 19.859 42.7659C20.0324 42.7659 20.171 42.7585 20.275 42.7436L20.4607 41.1242H21.5007L21.3373 42.3351C21.8722 42.0528 22.2238 41.7457 22.3922 41.4139L22.6819 41.8225C22.36 42.3177 21.8846 42.6941 21.2556 42.9516L21.159 43.7539C21.1194 44.1155 21.0476 44.4175 20.9436 44.6602C20.8396 44.9029 20.7158 45.0762 20.5722 45.1802C20.4335 45.2892 20.3047 45.361 20.1859 45.3956C20.067 45.4303 19.9358 45.4476 19.7922 45.4476ZM19.4505 44.3854C19.4505 44.4745 19.4777 44.5513 19.5322 44.6156C19.5866 44.68 19.6486 44.7122 19.7179 44.7122C19.7922 44.7122 19.8491 44.6998 19.8887 44.6751C19.9284 44.6503 19.9705 44.5859 20.015 44.4819C20.0596 44.3779 20.0943 44.2318 20.119 44.0436L20.1933 43.4345C19.6981 43.7415 19.4505 44.0585 19.4505 44.3854ZM24.2039 39.8316C24.6595 39.8316 25.0383 39.9777 25.3404 40.2699C25.6475 40.5621 25.801 40.9187 25.801 41.3396C25.801 41.9785 25.6128 42.4911 25.2364 42.8774C24.865 43.2587 24.4143 43.4494 23.8844 43.4494C23.3545 43.4494 22.9336 43.2983 22.6216 42.9962C22.3145 42.6941 22.161 42.3202 22.161 41.8745C22.161 41.2505 22.3517 40.7553 22.733 40.3888C23.1193 40.0174 23.6096 39.8316 24.2039 39.8316ZM24.0553 40.4334C23.8225 40.4334 23.6269 40.5671 23.4684 40.8345C23.31 41.1019 23.2233 41.4387 23.2084 41.8448C23.2084 42.132 23.2654 42.3697 23.3793 42.5579C23.4982 42.7461 23.6764 42.8402 23.9142 42.8402C24.1519 42.8402 24.35 42.709 24.5084 42.4465C24.6719 42.184 24.7536 41.8844 24.7536 41.5476C24.7536 41.2109 24.6966 40.9435 24.5827 40.7454C24.4688 40.5374 24.293 40.4334 24.0553 40.4334ZM28.0632 39.8316C28.5189 39.8316 28.8977 39.9777 29.1998 40.2699C29.5069 40.5621 29.6604 40.9187 29.6604 41.3396C29.6604 41.9785 29.4722 42.4911 29.0958 42.8774C28.7244 43.2587 28.2737 43.4494 27.7438 43.4494C27.2139 43.4494 26.793 43.2983 26.481 42.9962C26.1739 42.6941 26.0204 42.3202 26.0204 41.8745C26.0204 41.2505 26.2111 40.7553 26.5924 40.3888C26.9787 40.0174 27.469 39.8316 28.0632 39.8316ZM27.9147 40.4334C27.6819 40.4334 27.4863 40.5671 27.3278 40.8345C27.1693 41.1019 27.0827 41.4387 27.0678 41.8448C27.0678 42.132 27.1248 42.3697 27.2387 42.5579C27.3575 42.7461 27.5358 42.8402 27.7735 42.8402C28.0112 42.8402 28.2093 42.709 28.3678 42.4465C28.5312 42.184 28.613 41.8844 28.613 41.5476C28.613 41.2109 28.556 40.9435 28.4421 40.7454C28.3282 40.5374 28.1524 40.4334 27.9147 40.4334ZM32.8141 38.0488C32.8487 37.9646 32.9255 37.8953 33.0443 37.8408C33.1681 37.7814 33.3142 37.7516 33.4826 37.7516C33.656 37.7516 33.7847 37.7764 33.8689 37.8259C33.8194 38.2122 33.7401 38.8189 33.6312 39.6459C33.4034 41.3743 33.2895 42.3276 33.2895 42.5059C33.2895 42.6793 33.3638 42.7659 33.5123 42.7659C33.6411 42.7659 33.7748 42.6867 33.9135 42.5282C34.0521 42.3648 34.1784 42.0998 34.2923 41.7334C34.431 41.8671 34.5276 42.0132 34.5821 42.1716C34.4038 42.761 34.124 43.1423 33.7426 43.3156C33.5693 43.3998 33.4059 43.4419 33.2523 43.4419C32.8116 43.4419 32.5169 43.2835 32.3683 42.9665C32.1108 43.2884 31.7815 43.4494 31.3803 43.4494C30.9792 43.4494 30.64 43.3132 30.3626 43.0408C30.0902 42.7684 29.9541 42.4094 29.9541 41.9636C29.9541 41.3149 30.1447 40.7974 30.5261 40.4111C30.9074 40.0248 31.3902 39.8316 31.9746 39.8316C31.9895 39.8316 32.0043 39.8316 32.0192 39.8316C32.2222 39.8316 32.4129 39.8614 32.5912 39.9208L32.8141 38.0488ZM32.0861 40.4111C31.7691 40.4111 31.5165 40.5324 31.3283 40.7751C31.1451 41.0128 31.0361 41.3694 31.0015 41.8448C30.9965 41.8894 30.9941 41.9315 30.9941 41.9711C30.9941 42.2137 31.051 42.4069 31.1649 42.5505C31.2838 42.6941 31.4348 42.7659 31.6181 42.7659C31.9301 42.7659 32.1653 42.5455 32.3238 42.1048L32.5169 40.5076C32.3535 40.4433 32.2099 40.4111 32.0861 40.4111ZM39.2366 38.6059C39.1574 38.5713 39.0806 38.5539 39.0063 38.5539C38.9321 38.5539 38.8578 38.601 38.7835 38.6951C38.7092 38.7892 38.6597 38.9254 38.6349 39.1036L38.2635 41.7036C38.8875 41.4313 39.2862 41.2282 39.4595 41.0945L39.7418 41.5848C39.5932 41.6987 39.4149 41.8002 39.2069 41.8894C38.9989 41.9785 38.7983 42.0627 38.6052 42.1419C38.4121 42.2162 38.2684 42.2732 38.1743 42.3128L37.9292 44.0511C37.8648 44.5265 37.694 44.8756 37.4166 45.0985C37.1443 45.3263 36.8422 45.4402 36.5103 45.4402C36.1835 45.4402 35.9235 45.3189 35.7303 45.0762C35.5372 44.8385 35.4406 44.5711 35.4406 44.2739C35.4406 43.4964 36.0102 42.8055 37.1492 42.2014L37.2235 41.5996C37.3176 40.7478 37.4142 40.0075 37.5132 39.3785C37.2309 39.4924 36.9338 39.5494 36.6218 39.5494C36.3147 39.5494 36.0646 39.4652 35.8715 39.2968C35.6833 39.1284 35.5892 38.908 35.5892 38.6356C35.5892 38.3633 35.6858 38.1503 35.8789 37.9968C36.077 37.8383 36.3246 37.7591 36.6218 37.7591C36.805 37.7591 37.0675 37.816 37.4092 37.9299C37.7559 38.0438 38.0233 38.1008 38.2115 38.1008C38.5483 38.1008 38.8305 38.0141 39.0583 37.8408C39.1822 38.0141 39.2441 38.2196 39.2441 38.4574C39.2441 38.5069 39.2416 38.5564 39.2366 38.6059ZM36.3246 38.8362C36.3246 38.9105 36.3643 38.9749 36.4435 39.0294C36.5277 39.0838 36.6515 39.1111 36.8149 39.1111C36.9833 39.1111 37.2012 39.0368 37.4686 38.8882C37.2755 38.8436 37.0774 38.7941 36.8743 38.7396C36.6713 38.6802 36.55 38.6505 36.5103 38.6505C36.3865 38.6505 36.3246 38.7124 36.3246 38.8362ZM37.0675 42.8476C36.3593 43.2735 36.0052 43.7242 36.0052 44.1996C36.0052 44.3334 36.0399 44.4473 36.1092 44.5414C36.1884 44.6503 36.2875 44.7048 36.4063 44.7048C36.5302 44.7048 36.6366 44.6676 36.7258 44.5934C36.8149 44.5191 36.8694 44.4002 36.8892 44.2368L37.0675 42.8476ZM40.7295 39.8316C41.1852 39.8316 41.564 39.9777 41.8661 40.2699C42.1732 40.5621 42.3267 40.9187 42.3267 41.3396C42.3267 41.9785 42.1385 42.4911 41.7621 42.8774C41.3907 43.2587 40.94 43.4494 40.4101 43.4494C39.8802 43.4494 39.4593 43.2983 39.1473 42.9962C38.8402 42.6941 38.6867 42.3202 38.6867 41.8745C38.6867 41.2505 38.8774 40.7553 39.2587 40.3888C39.645 40.0174 40.1353 39.8316 40.7295 39.8316ZM40.581 40.4334C40.3482 40.4334 40.1526 40.5671 39.9941 40.8345C39.8356 41.1019 39.749 41.4387 39.7341 41.8448C39.7341 42.132 39.7911 42.3697 39.905 42.5579C40.0238 42.7461 40.2021 42.8402 40.4398 42.8402C40.6775 42.8402 40.8756 42.709 41.0341 42.4465C41.1975 42.184 41.2793 41.8844 41.2793 41.5476C41.2793 41.2109 41.2223 40.9435 41.1084 40.7454C40.9945 40.5374 40.8187 40.4334 40.581 40.4334ZM44.8192 39.8242C45.1758 39.8242 45.4828 39.9703 45.7403 40.2625C45.9979 40.5547 46.1266 40.8964 46.1266 41.2876C46.1266 41.3421 46.1242 41.3991 46.1192 41.4585C46.0647 42.1073 45.8468 42.6025 45.4655 42.9442C45.0842 43.281 44.5864 43.4494 43.9723 43.4494C43.7247 43.4395 43.5093 43.3949 43.3261 43.3156C43.1428 43.2364 43.0066 43.1374 42.9175 43.0185C42.7491 42.8006 42.6649 42.6075 42.6649 42.4391C42.6649 42.2657 42.6897 41.9884 42.7392 41.6071C42.8432 40.8246 42.9918 39.5593 43.1849 37.8111C43.2889 37.7715 43.4276 37.7516 43.6009 37.7516C43.9971 37.7516 44.1952 37.8655 44.1952 38.0934L43.9426 40.0694C44.1754 39.9059 44.4676 39.8242 44.8192 39.8242ZM43.6678 42.3871C43.6678 42.501 43.7099 42.5975 43.7941 42.6768C43.8832 42.7511 44.0045 42.7882 44.1581 42.7882C44.4106 42.7882 44.6186 42.6718 44.7821 42.4391C44.9802 42.1568 45.0792 41.7903 45.0792 41.3396C45.0792 41.1217 45.0297 40.9286 44.9306 40.7602C44.8316 40.5918 44.6781 40.5076 44.4701 40.5076C44.1878 40.5076 43.9723 40.676 43.8238 41.0128L43.7643 41.4585C43.7 41.9587 43.6678 42.2682 43.6678 42.3871ZM47.3577 37.2316C47.4567 37.1821 47.6301 37.1574 47.8777 37.1574C48.363 37.1574 48.6057 37.2713 48.6057 37.4991C48.6057 37.5189 48.6032 37.5412 48.5983 37.5659L47.6771 41.4585H46.8823L47.3577 37.2316ZM46.6594 42.5134C46.7783 42.3945 46.9219 42.3351 47.0903 42.3351C47.2586 42.3351 47.4023 42.3945 47.5211 42.5134C47.64 42.6322 47.6994 42.7758 47.6994 42.9442C47.6994 43.1126 47.64 43.2562 47.5211 43.3751C47.4023 43.489 47.2586 43.5459 47.0903 43.5459C46.9219 43.5459 46.7783 43.489 46.6594 43.3751C46.5455 43.2562 46.4885 43.1126 46.4885 42.9442C46.4885 42.7758 46.5455 42.6322 46.6594 42.5134Z" fill="black"/>
</svg>
